<?xml version="1.0" standalone="no"?>
<!DOCTYPE svg PUBLIC "-//W3C//DTD SVG 20010904//EN"
 "http://www.w3.org/TR/2001/REC-SVG-20010904/DTD/svg10.dtd">
<svg version="1.0" xmlns="http://www.w3.org/2000/svg"
 width="1017.000000pt" height="923.000000pt" viewBox="0 0 1017.000000 923.000000"
 preserveAspectRatio="xMidYMid meet">

<g transform="translate(0.000000,923.000000) scale(0.100000,-0.100000)"
fill="#000000" stroke="none">
<path fill="#FF385C" d="M4983 9199 c-705 -33 -1394 -230 -1979 -564 -218 -125 -477 -307
-694 -489 -118 -99 -403 -379 -519 -511 -617 -702 -968 -1476 -1085 -2395 -41
-320 -46 -770 -11 -1098 106 -1019 523 -1909 1245 -2655 795 -823 1694 -1266
2815 -1389 189 -21 799 -17 1000 5 1034 116 1893 526 2657 1266 537 519 930
1133 1153 1797 103 309 176 650 212 999 21 198 23 710 5 900 -109 1128 -548
2043 -1363 2841 -836 817 -1803 1239 -2969 1294 -232 11 -226 11 -467 -1z
m717 -394 c317 -33 630 -100 900 -191 74 -25 136 -47 138 -49 2 -2 -8 -20 -22
-42 -14 -21 -30 -60 -37 -88 -6 -27 -20 -68 -30 -90 -9 -22 -29 -66 -43 -97
-13 -32 -45 -79 -69 -105 -24 -26 -57 -68 -72 -93 -15 -25 -61 -76 -102 -114
-40 -37 -81 -83 -91 -101 -29 -56 -194 -235 -237 -257 -43 -22 -126 -85 -210
-160 -29 -25 -88 -70 -132 -98 -43 -29 -87 -61 -98 -70 -61 -54 -228 -128
-330 -145 -22 -4 -62 -17 -90 -30 -72 -33 -174 -56 -295 -66 -58 -5 -139 -14
-180 -20 -98 -13 -413 -19 -560 -9 -202 14 -426 65 -553 126 -39 19 -77 34
-83 34 -6 0 -47 16 -90 36 -109 49 -118 53 -297 139 -87 41 -160 75 -163 75
-4 0 -19 11 -34 24 -32 26 -163 100 -199 111 -32 10 -289 210 -290 227 -1 10
227 199 356 295 330 246 757 465 1143 587 305 97 646 160 1005 186 163 12 588
3 765 -15z m1429 -414 c248 -125 535 -317 776 -520 130 -109 381 -357 505
-497 516 -589 832 -1256 954 -2014 42 -260 51 -387 51 -715 0 -340 -11 -485
-55 -750 -127 -757 -443 -1413 -971 -2010 -101 -114 -347 -359 -436 -433 l-52
-43 -32 47 c-42 62 -292 308 -332 328 -18 8 -61 41 -97 72 -37 33 -96 72 -138
91 -41 18 -94 47 -119 64 -24 17 -72 42 -106 56 -33 14 -105 47 -158 73 -54
27 -122 56 -151 64 -504 149 -1080 226 -1593 213 -422 -11 -595 -27 -895 -82
-436 -81 -713 -179 -946 -338 -51 -34 -122 -80 -158 -102 -46 -27 -88 -65
-134 -120 -37 -43 -108 -120 -158 -170 -50 -51 -103 -114 -118 -141 -15 -27
-44 -69 -65 -93 l-37 -44 -95 79 c-129 108 -381 355 -503 494 -575 654 -900
1393 -996 2265 -21 188 -24 660 -6 868 54 618 221 1165 511 1667 160 278 373
565 573 772 l65 66 101 -88 c115 -101 244 -200 260 -200 17 0 138 -63 177 -92
31 -23 318 -168 332 -168 3 0 39 -15 79 -34 170 -79 256 -116 267 -116 7 0 31
-11 54 -24 80 -46 361 -115 548 -136 144 -16 547 -17 664 -2 55 7 147 17 205
22 58 4 143 17 190 29 47 11 94 21 106 21 11 0 43 11 70 25 27 14 58 25 69 25
30 0 206 58 224 73 9 8 51 33 94 55 44 23 98 57 120 75 23 19 74 54 112 79 39
26 95 68 127 95 108 92 143 118 181 135 59 27 223 199 329 346 14 20 55 63 91
94 35 32 77 79 92 105 15 26 43 64 61 83 77 81 113 132 129 182 10 29 23 62
30 74 8 12 24 54 36 94 14 47 33 86 53 107 17 18 32 33 34 33 1 0 38 -18 81
-39z m-1484 -6296 c265 -20 367 -32 505 -60 63 -13 156 -31 205 -40 145 -26
333 -83 425 -127 47 -22 115 -53 152 -69 37 -15 88 -42 113 -59 25 -17 71 -43
103 -57 31 -15 92 -55 135 -90 43 -35 81 -63 85 -63 12 0 228 -212 240 -235
14 -27 18 -87 8 -104 -22 -36 -358 -236 -561 -335 -692 -338 -1518 -467 -2360
-371 -611 71 -1194 277 -1692 601 -90 58 -93 65 -45 116 13 14 38 49 56 76 49
79 301 347 354 378 67 38 183 114 207 135 34 29 215 106 340 144 242 74 690
154 870 156 55 1 127 5 160 9 106 13 494 10 700 -5z"/>
<path fill="#FF385C" d="M5114 5833 c-1648 -3 -1873 -5 -1884 -18 -7 -8 -21 -15 -32 -15 -11
0 -28 -5 -39 -10 -19 -10 -19 -35 -19 -1227 l0 -1217 27 -28 27 -28 1932 0
c1705 0 1934 2 1948 15 10 10 34 15 74 15 102 0 92 -135 92 1260 1 1096 -1
1225 -15 1239 -12 13 -40 16 -128 16 -62 1 -954 0 -1983 -2z m-1594 -1268 l0
-955 -35 0 -35 0 0 955 0 955 35 0 35 0 0 -955z m3010 560 l0 -395 -1345 0
-1345 0 0 395 0 395 1345 0 1345 0 0 -395z m400 -560 l0 -955 -40 0 -40 0 0
955 0 955 40 0 40 0 0 -955z m-400 -555 l0 -400 -1345 0 -1345 0 0 400 0 400
1345 0 1345 0 0 -400z"/>
</g>
</svg>
