<?xml version="1.0" standalone="no"?>
<!DOCTYPE svg PUBLIC "-//W3C//DTD SVG 20010904//EN"
 "http://www.w3.org/TR/2001/REC-SVG-20010904/DTD/svg10.dtd">
<svg version="1.0" xmlns="http://www.w3.org/2000/svg"
 width="648.000000pt" height="643.000000pt" viewBox="0 0 648.000000 643.000000"
 preserveAspectRatio="xMidYMid meet">

<g transform="translate(0.000000,643.000000) scale(0.100000,-0.100000)"
fill="#000000" stroke="none">
<path d="M2955 6260 c-397 -26 -798 -135 -1145 -310 -650 -327 -1211 -924
-1490 -1585 -277 -655 -307 -1501 -79 -2187 108 -324 325 -720 514 -936 12
-15 42 -49 65 -77 123 -146 334 -346 497 -472 180 -138 268 -195 462 -295 337
-175 642 -266 1056 -315 273 -32 704 -18 935 32 310 66 358 80 635 188 82 32
333 167 438 235 109 71 265 187 362 271 98 84 340 338 426 447 358 449 556
918 635 1499 22 160 25 627 6 775 -72 552 -215 933 -515 1380 -28 41 -73 101
-100 135 -27 33 -70 86 -96 117 -76 95 -328 339 -451 437 -215 172 -446 313
-675 414 -191 83 -351 135 -560 181 -262 59 -634 85 -920 66z m575 -176 c185
-18 376 -58 575 -117 61 -19 167 -56 172 -61 4 -3 -14 -39 -39 -76 -9 -14 -31
-65 -48 -115 -21 -59 -42 -100 -61 -117 -16 -15 -42 -49 -59 -75 -16 -27 -56
-74 -90 -107 -33 -32 -60 -63 -60 -68 0 -11 -18 -32 -101 -119 -31 -33 -61
-59 -67 -59 -5 0 -27 -16 -48 -35 -22 -19 -42 -35 -46 -35 -4 0 -33 -22 -64
-50 -31 -27 -61 -50 -65 -50 -4 0 -31 -19 -59 -41 -62 -49 -177 -104 -240
-114 -25 -4 -61 -16 -80 -26 -19 -11 -45 -19 -57 -19 -12 0 -33 -4 -48 -10
-37 -14 -58 -17 -248 -31 -293 -22 -610 12 -744 79 -21 11 -49 23 -63 27 -14
4 -67 27 -118 51 -52 24 -100 44 -107 44 -8 0 -16 4 -19 9 -3 5 -40 25 -82 45
-41 20 -90 46 -107 58 -34 25 -117 67 -131 68 -8 0 -84 61 -136 109 -36 33
-79 54 -101 48 -11 -3 -19 -2 -19 1 0 20 252 226 395 323 93 63 326 199 340
199 3 0 29 12 58 26 221 108 568 205 842 235 278 30 450 31 725 3z m946 -267
c139 -60 409 -235 558 -361 412 -346 711 -746 891 -1192 203 -504 257 -1139
144 -1709 -89 -449 -293 -877 -587 -1230 -117 -140 -323 -350 -421 -428 l-35
-28 -23 52 c-25 57 -166 205 -239 251 -21 14 -51 37 -65 51 -25 25 -148 97
-239 139 -25 11 -76 35 -115 53 -38 18 -86 37 -105 43 -19 6 -64 20 -100 31
-121 37 -431 90 -605 103 -375 29 -826 5 -1075 -57 -30 -7 -73 -16 -95 -20
-22 -3 -58 -12 -80 -20 -22 -8 -74 -24 -115 -36 -87 -25 -169 -65 -250 -120
-32 -21 -60 -39 -64 -39 -19 0 -131 -88 -163 -128 -20 -26 -64 -74 -97 -107
-33 -32 -87 -101 -121 -151 l-62 -92 -64 49 c-140 108 -359 332 -500 509 -440
557 -646 1267 -589 2030 52 693 307 1260 802 1784 l58 61 0 -34 c0 -28 9 -43
51 -82 67 -64 164 -138 197 -150 43 -15 96 -43 107 -55 16 -18 241 -128 405
-199 47 -20 105 -45 130 -56 46 -19 75 -27 220 -60 121 -28 450 -46 533 -31
34 7 114 17 177 22 63 5 135 16 159 24 24 9 52 16 63 16 11 0 32 6 46 14 15 8
58 22 95 31 69 16 182 73 247 124 19 15 45 33 58 40 22 12 182 138 192 152 3
3 15 9 28 13 38 12 232 215 232 244 0 4 23 28 51 52 29 25 63 63 77 85 13 22
33 49 43 60 49 50 66 75 78 106 8 19 19 48 26 64 7 17 18 47 24 67 7 20 25 53
42 74 16 20 29 41 29 45 0 12 13 11 46 -4z m-1146 -4377 c218 -9 450 -32 505
-51 17 -5 61 -14 99 -20 62 -8 148 -30 246 -61 36 -11 182 -76 235 -105 17 -8
60 -31 97 -50 36 -19 72 -41 79 -49 7 -8 35 -30 63 -49 28 -19 84 -67 125
-108 60 -61 75 -82 81 -118 5 -24 11 -51 14 -59 4 -11 -22 -34 -91 -80 -53
-36 -111 -72 -127 -81 -17 -9 -80 -42 -141 -74 -384 -201 -833 -305 -1325
-305 -587 0 -1092 141 -1558 435 -63 40 -64 40 -59 81 5 51 45 109 152 221 44
46 86 93 93 106 8 12 36 36 64 52 27 17 73 46 101 64 82 55 167 96 247 120 41
13 95 29 120 36 25 8 65 16 90 20 25 4 59 10 75 15 81 25 346 56 580 68 11 1
117 -3 235 -8z"/>
<path d="M4590 3921 c-20 -6 -26 -17 -37 -71 -7 -36 -17 -139 -22 -229 -5 -91
-14 -192 -20 -225 -5 -34 -22 -136 -36 -228 -15 -92 -40 -221 -56 -285 -30
-124 -36 -185 -19 -227 9 -24 14 -26 67 -26 56 0 120 9 213 30 25 6 70 14 100
19 93 15 236 68 260 95 7 9 16 16 21 16 11 0 26 13 125 107 88 84 132 158 141
235 2 24 7 50 10 58 3 8 8 22 11 30 10 30 6 268 -5 282 -6 7 -14 28 -18 45 -3
18 -18 42 -31 52 -14 11 -35 34 -47 52 -12 17 -38 41 -58 53 -52 31 -89 56
-134 91 -62 49 -149 95 -180 95 -29 0 -85 15 -117 31 -20 10 -131 10 -168 0z
m252 -196 c29 -19 78 -53 108 -75 30 -22 74 -49 98 -62 23 -12 42 -28 42 -36
0 -8 15 -28 33 -46 38 -36 73 -129 64 -172 -3 -16 -10 -52 -16 -81 -22 -116
-42 -153 -127 -238 -45 -44 -91 -87 -104 -95 -12 -8 -32 -22 -44 -31 -37 -28
-118 -58 -211 -79 -49 -10 -91 -17 -94 -14 -3 2 5 50 17 107 13 56 27 131 32
167 42 278 49 346 59 522 5 80 12 151 15 157 14 23 75 11 128 -24z"/>
<path d="M3830 3870 c-30 -4 -93 -13 -140 -19 -47 -6 -124 -11 -172 -11 -116
0 -118 -1 -118 -66 0 -50 2 -54 27 -60 45 -12 414 5 458 20 57 20 67 13 50
-37 -34 -102 -57 -161 -85 -212 -17 -31 -30 -61 -30 -68 0 -7 -14 -28 -31 -46
l-30 -34 -212 4 -212 4 -3 -51 c-2 -33 2 -55 10 -62 8 -6 84 -14 180 -18 181
-8 175 -5 135 -58 -9 -13 -60 -90 -107 -161 -19 -30 -70 -105 -112 -167 -75
-108 -78 -116 -78 -169 0 -50 3 -57 23 -63 40 -10 80 -6 182 19 55 14 112 25
128 25 15 0 64 9 108 21 66 17 96 20 160 14 44 -4 120 -4 169 0 l90 7 0 57 0
58 -162 6 c-148 5 -300 -2 -385 -19 -39 -7 -41 3 -10 41 12 16 38 54 57 85 50
82 114 174 123 178 4 2 7 8 7 13 0 4 19 36 42 70 l42 61 81 -7 c44 -3 121 -7
170 -8 l90 -2 3 48 c2 27 -2 54 -8 62 -14 17 -63 26 -177 32 -51 2 -93 6 -93
8 0 3 9 20 20 40 11 20 29 63 41 97 11 34 27 74 35 90 8 15 14 38 14 51 0 14
9 44 20 68 25 57 26 130 2 152 -15 14 -39 17 -133 16 -63 -1 -139 -5 -169 -9z"/>
<path d="M2345 3820 c-4 -11 -12 -107 -20 -213 -12 -173 -22 -259 -56 -467 -6
-36 -15 -99 -19 -140 -5 -41 -13 -97 -19 -125 -6 -27 -16 -77 -22 -109 -5 -33
-12 -63 -15 -67 -12 -20 -15 -120 -4 -134 15 -18 145 -21 155 -4 8 12 39 165
55 269 24 162 34 211 42 216 11 7 68 -15 68 -27 0 -4 8 -10 18 -13 10 -3 69
-57 132 -120 127 -125 138 -138 175 -196 14 -22 29 -40 34 -40 4 0 20 -11 34
-24 14 -13 40 -34 59 -47 18 -12 37 -29 41 -36 5 -9 32 -13 81 -13 83 0 86 3
86 75 0 41 -3 46 -52 82 -100 72 -107 79 -158 149 -37 51 -220 237 -280 284
-19 15 -46 31 -58 35 l-24 7 23 16 c12 10 61 53 108 97 47 44 108 98 134 120
27 22 64 60 83 85 19 25 47 63 64 85 17 22 43 54 58 70 50 53 63 82 60 133
l-3 47 -78 3 -77 3 -21 -35 c-11 -19 -26 -37 -34 -40 -8 -3 -27 -24 -42 -48
-38 -60 -120 -156 -168 -198 -22 -19 -79 -72 -127 -117 -47 -46 -91 -83 -97
-83 -11 0 -6 115 9 190 5 25 10 113 12 195 l3 150 -77 3 c-70 3 -77 1 -83 -18z"/>
<path d="M1597 3813 c-4 -3 -7 -16 -7 -29 0 -13 -8 -24 -20 -27 -11 -3 -22
-11 -23 -19 -6 -19 -35 -134 -52 -202 -9 -33 -24 -75 -35 -95 -29 -54 -54
-116 -90 -220 -17 -52 -44 -119 -60 -150 -15 -31 -33 -74 -40 -95 -7 -22 -25
-61 -41 -88 -16 -27 -29 -54 -29 -61 0 -7 -18 -39 -40 -72 -33 -50 -39 -68
-40 -111 0 -60 5 -64 87 -64 48 0 59 4 81 29 28 29 122 209 147 281 8 23 29
71 46 108 l31 67 160 1 161 0 -6 -125 c-3 -69 -15 -174 -27 -233 -11 -59 -20
-127 -18 -150 l3 -43 74 0 c55 0 76 4 82 15 39 77 70 502 51 722 -7 85 -19
152 -32 186 -11 29 -20 60 -20 68 0 23 -82 160 -125 209 -19 22 -35 45 -35 52
0 7 -10 21 -22 33 -17 16 -35 20 -88 20 -37 0 -70 -3 -73 -7z m138 -311 c30
-52 79 -194 89 -258 l7 -41 -98 -6 c-56 -3 -102 -2 -107 4 -6 5 -20 9 -33 9
-31 0 -29 18 11 103 19 40 47 111 61 160 15 48 30 85 35 82 5 -3 20 -27 35
-53z"/>
</g>
</svg>
